<?xml version="1.0" standalone="no"?>
<!DOCTYPE svg PUBLIC "-//W3C//DTD SVG 20010904//EN"
 "http://www.w3.org/TR/2001/REC-SVG-20010904/DTD/svg10.dtd">
<svg version="1.0" xmlns="http://www.w3.org/2000/svg"
 width="2133.000000pt" height="2133.000000pt" viewBox="0 0 2133.000000 2133.000000"
 preserveAspectRatio="xMidYMid meet">
<metadata>
Created by potrace 1.15, written by Peter Selinger 2001-2017
</metadata>
<g transform="translate(0.000000,2133.000000) scale(0.100000,-0.100000)"
fill="#000000" stroke="none">
<path d="M647 16349 c-153 -37 -297 -120 -411 -237 -73 -75 -107 -124 -157
-227 -59 -121 -79 -215 -79 -365 0 -158 20 -244 91 -390 l51 -105 542 -541
c580 -579 1379 -1370 4596 -4554 1125 -1113 2495 -2469 3045 -3014 1701 -1685
1779 -1761 1831 -1799 67 -48 203 -112 284 -134 92 -25 358 -25 450 0 87 23
233 96 305 151 52 41 976 951 2330 2295 264 263 964 956 1555 1541 591 585
1282 1269 1535 1521 253 251 1375 1362 2493 2469 1227 1215 2048 2034 2071
2068 53 79 95 165 123 252 20 66 23 95 23 240 0 145 -3 174 -23 240 -47 147
-121 268 -228 371 -174 166 -358 239 -599 239 -136 0 -215 -14 -330 -59 -142
-55 -202 -102 -515 -405 -63 -62 -245 -237 -405 -391 -159 -153 -342 -329
-405 -391 -233 -228 -1199 -1154 -1203 -1154 -2 0 -53 -49 -113 -108 -60 -60
-242 -237 -404 -393 -162 -156 -347 -333 -410 -395 -63 -61 -362 -349 -665
-639 -302 -290 -602 -578 -665 -639 -63 -62 -248 -240 -410 -396 -162 -156
-344 -332 -405 -391 -60 -59 -357 -344 -660 -634 -302 -290 -602 -578 -665
-639 -63 -62 -245 -238 -405 -391 -159 -153 -342 -329 -405 -391 -63 -61 -362
-349 -665 -640 -302 -290 -666 -640 -809 -778 -142 -138 -262 -252 -267 -254
-5 -2 -189 170 -408 382 -220 212 -401 386 -404 386 -2 0 -62 58 -133 128 -71
70 -253 247 -404 392 -151 145 -329 317 -395 381 -66 64 -365 351 -665 639
-300 287 -597 573 -660 634 -63 62 -248 240 -410 396 -162 156 -344 332 -405
391 -60 59 -357 344 -660 634 -302 290 -602 578 -665 639 -63 62 -243 235
-400 386 -157 150 -339 326 -405 391 -66 64 -367 354 -670 644 -302 290 -604
580 -670 644 -66 64 -244 235 -395 381 -151 146 -329 317 -395 381 -665 645
-1116 1071 -1183 1116 -85 58 -201 107 -302 129 -96 20 -297 17 -393 -7z"/>
</g>
</svg>
